<svg width="100" height="56" fill="none" xmlns="http://www.w3.org/2000/svg">
    <mask id="prefix__a" style="mask-type:alpha" maskUnits="userSpaceOnUse" x="0" y="0" width="99" height="56">
        <path
            d="M73.431 0H3a3 3 0 00-3 3v50a3 3 0 003 3h70.431a3 3 0 002.229-.992l22.53-25a3 3 0 000-4.016l-22.53-25A3 3 0 0073.432 0z"
            fill="#D9D9D9" />
    </mask>
    <g mask="url(#prefix__a)">
        <path fill="#C8D400" d="M24 0h75v56H24z" />
        <path
            d="M68.835 20.313H61.37c-.136-.966-.414-1.824-.835-2.574a6.547 6.547 0 00-1.62-1.944 7.127 7.127 0 00-2.283-1.227 8.736 8.736 0 00-2.779-.426c-1.806 0-3.38.449-4.721 1.347-1.341.886-2.381 2.181-3.12 3.886-.738 1.693-1.108 3.75-1.108 6.17 0 2.49.37 4.58 1.108 6.273.75 1.693 1.796 2.972 3.137 3.835 1.34.864 2.892 1.296 4.653 1.296.989 0 1.904-.13 2.744-.392a7.212 7.212 0 002.267-1.142 6.583 6.583 0 001.637-1.858c.443-.727.75-1.557.92-2.489l7.466.034a13.507 13.507 0 01-1.449 4.637c-.761 1.477-1.79 2.8-3.085 3.971-1.284 1.16-2.818 2.08-4.602 2.762-1.773.67-3.779 1.005-6.017 1.005-3.114 0-5.898-.704-8.352-2.113-2.444-1.41-4.375-3.45-5.796-6.12-1.409-2.67-2.114-5.903-2.114-9.698 0-3.807.716-7.046 2.148-9.716 1.432-2.67 3.375-4.705 5.83-6.103 2.454-1.409 5.216-2.113 8.284-2.113 2.023 0 3.898.284 5.625.852 1.738.568 3.278 1.398 4.62 2.489a12.804 12.804 0 013.272 3.971c.852 1.568 1.398 3.364 1.636 5.386zM1 0h23v56H1z"
            fill="#fff" />
        <path
            d="M8.771 19H5.476l5.021-14.545h3.963L19.474 19H16.18L12.536 7.778h-.114L8.772 19zm-.206-5.717h7.784v2.4H8.565v-2.4zM15.91 41.156c-.1-.345-.24-.65-.42-.916-.18-.27-.4-.497-.66-.682a2.83 2.83 0 00-.881-.433c-.327-.1-.69-.15-1.087-.15-.743 0-1.397.185-1.96.555-.559.37-.994.907-1.307 1.612-.312.7-.469 1.558-.469 2.571 0 1.013.154 1.875.462 2.585.308.71.743 1.253 1.307 1.627.563.369 1.229.554 1.996.554.696 0 1.29-.123 1.782-.37a2.648 2.648 0 001.137-1.058c.265-.454.397-.992.397-1.612l.625.092h-3.75v-2.315h6.087v1.832c0 1.279-.27 2.377-.81 3.296a5.518 5.518 0 01-2.23 2.116c-.947.493-2.031.739-3.253.739-1.363 0-2.561-.3-3.593-.902-1.033-.606-1.837-1.466-2.415-2.578-.573-1.118-.86-2.443-.86-3.977 0-1.18.171-2.23.512-3.154.346-.928.828-1.714 1.449-2.358a6.262 6.262 0 012.166-1.47 7.02 7.02 0 012.678-.504c.823 0 1.59.12 2.3.362.71.237 1.34.573 1.89 1.008a5.461 5.461 0 011.356 1.556c.35.596.576 1.255.675 1.974H15.91zM17.5 26.98L12.756 22 8 26.994l1.31 1.375 2.52-2.645V33h1.852v-7.276l2.508 2.632 1.31-1.375z"
            fill="#000" />
        <path fill-rule="evenodd" clip-rule="evenodd"
            d="M73.431 1H3a2 2 0 00-2 2v50a2 2 0 002 2h70.431a2 2 0 001.486-.661l22.53-25a2 2 0 000-2.678l-22.53-25A2 2 0 0073.431 1zM3 0h70.431a3 3 0 012.229.992l22.53 25a3 3 0 010 4.016l-22.53 25a3 3 0 01-2.228.992H3a3 3 0 01-3-3V3a3 3 0 013-3z"
            fill="#000" />
    </g>
</svg>