<svg width="53" height="28" fill="none" xmlns="http://www.w3.org/2000/svg">
    <mask id="prefix__a" style="mask-type:alpha" maskUnits="userSpaceOnUse" x="0" y="0" width="53" height="28">
        <path
            d="M38.725 0H3a3 3 0 00-3 3v22a3 3 0 003 3h35.725a3 3 0 002.16-.918l10.607-11a3 3 0 000-4.164l-10.607-11A3 3 0 0038.725 0z"
            fill="#D9D9D9" />
    </mask>
    <g mask="url(#prefix__a)">
        <path fill="#FFED00" d="M13 0h39v28H13z" />
        <path
            d="M27.026 23H20.58V4.818h6.499c1.829 0 3.403.364 4.723 1.092 1.32.722 2.335 1.76 3.045 3.116.716 1.356 1.074 2.977 1.074 4.865 0 1.894-.358 3.522-1.074 4.883a7.381 7.381 0 01-3.063 3.134C30.458 22.636 28.872 23 27.026 23zm-2.602-3.294h2.442c1.136 0 2.092-.2 2.867-.603.782-.409 1.367-1.04 1.758-1.891.397-.858.595-1.965.595-3.32 0-1.344-.198-2.442-.595-3.294-.39-.853-.974-1.48-1.749-1.882-.775-.403-1.731-.604-2.867-.604h-2.45v11.594zM1 0h12v28H1z"
            fill="#fff" />
        <path
            d="M5.509 9H4.19L6.2 3.182h1.585L9.79 9H8.472L7.014 4.511H6.97L5.509 9zm-.083-2.287H8.54v.96H5.426v-.96zM8.364 20.063a1.276 1.276 0 00-.168-.367 1.133 1.133 0 00-.616-.446c-.131-.04-.276-.06-.435-.06-.297 0-.559.074-.784.222a1.454 1.454 0 00-.523.645c-.125.28-.187.623-.187 1.028s.061.75.184 1.034c.123.284.298.501.523.65.225.149.491.223.798.223.279 0 .516-.05.713-.148.2-.1.35-.242.455-.424.106-.181.159-.396.159-.644l.25.037h-1.5v-.927h2.435v.733c0 .512-.108.951-.324 1.319a2.208 2.208 0 01-.892.846 2.779 2.779 0 01-1.301.296c-.546 0-1.025-.12-1.438-.361a2.504 2.504 0 01-.966-1.032c-.229-.447-.344-.977-.344-1.59 0-.472.069-.893.205-1.262.138-.371.331-.685.58-.943.248-.258.536-.454.866-.588.33-.134.687-.202 1.071-.202.33 0 .636.049.92.145.285.095.536.23.756.404.222.174.403.381.543.622.14.238.23.502.27.79h-1.25zM9.5 13.49L7.003 11 4.5 13.497l.69.688 1.326-1.323V16.5h.975v-3.638l1.32 1.316.689-.688z"
            fill="#000" />
        <path fill-rule="evenodd" clip-rule="evenodd"
            d="M38.725 1H3a2 2 0 00-2 2v22a2 2 0 002 2h35.725a2 2 0 001.44-.612l10.607-11a2 2 0 000-2.776l-10.607-11A2 2 0 0038.725 1zM3 0h35.725a3 3 0 012.16.918l10.607 11a3 3 0 010 4.164l-10.607 11a3 3 0 01-2.16.918H3a3 3 0 01-3-3V3a3 3 0 013-3z"
            fill="#000" />
    </g>
</svg>