<svg width="53" height="28" fill="none" xmlns="http://www.w3.org/2000/svg">
    <mask id="prefix__a" style="mask-type:alpha" maskUnits="userSpaceOnUse" x="0" y="0" width="53" height="28">
        <path
            d="M38.725 0H3a3 3 0 00-3 3v22a3 3 0 003 3h35.725a3 3 0 002.16-.918l10.607-11a3 3 0 000-4.164l-10.607-11A3 3 0 0038.725 0z"
            fill="#D9D9D9" />
    </mask>
    <g mask="url(#prefix__a)">
        <path fill="#C8D400" d="M13 0h39v28H13z" />
        <path
            d="M36.623 11.184h-3.889a3.802 3.802 0 00-.435-1.341 3.41 3.41 0 00-.843-1.012 3.711 3.711 0 00-1.19-.64 4.55 4.55 0 00-1.447-.221c-.941 0-1.76.234-2.46.701-.698.462-1.24 1.137-1.624 2.024-.385.882-.577 1.953-.577 3.214 0 1.296.192 2.385.577 3.267.39.882.935 1.548 1.634 1.998.698.45 1.506.674 2.423.674.515 0 .992-.068 1.43-.204a3.757 3.757 0 001.18-.595c.344-.266.628-.588.853-.967.23-.38.39-.811.479-1.297l3.889.018a7.255 7.255 0 01-2.361 4.483c-.67.604-1.469 1.084-2.398 1.439-.923.349-1.968.524-3.134.524-1.622 0-3.072-.367-4.35-1.101-1.272-.734-2.279-1.797-3.018-3.187-.734-1.391-1.101-3.075-1.101-5.052 0-1.983.373-3.67 1.118-5.06.746-1.391 1.758-2.45 3.037-3.179 1.278-.733 2.716-1.1 4.314-1.1 1.054 0 2.03.148 2.93.443a7.43 7.43 0 012.406 1.297 6.667 6.667 0 011.704 2.068c.444.817.728 1.752.852 2.806zM1 0h12v28H1z"
            fill="#fff" />
        <path
            d="M5.509 9H4.19L6.2 3.182h1.585L9.79 9H8.472L7.014 4.511H6.97L5.509 9zm-.083-2.287H8.54v.96H5.426v-.96zM8.364 20.063a1.276 1.276 0 00-.168-.367 1.133 1.133 0 00-.616-.446c-.131-.04-.276-.06-.435-.06-.297 0-.559.074-.784.222a1.454 1.454 0 00-.523.645c-.125.28-.187.623-.187 1.028s.061.75.184 1.034c.123.284.298.501.523.65.225.149.491.223.798.223.279 0 .516-.05.713-.148.2-.1.35-.242.455-.424.106-.181.159-.396.159-.644l.25.037h-1.5v-.927h2.435v.733c0 .512-.108.951-.324 1.319a2.208 2.208 0 01-.892.846 2.779 2.779 0 01-1.301.296c-.546 0-1.025-.12-1.438-.361a2.504 2.504 0 01-.966-1.032c-.229-.447-.344-.977-.344-1.59 0-.472.069-.893.205-1.262.138-.371.331-.685.58-.943.248-.258.536-.454.866-.588.33-.134.687-.202 1.071-.202.33 0 .636.049.92.145.285.095.536.23.756.404.222.174.403.381.543.622.14.238.23.502.27.79h-1.25zM9.5 13.49L7.003 11 4.5 13.497l.69.688 1.326-1.323V16.5h.975v-3.638l1.32 1.316.689-.688z"
            fill="#000" />
        <path fill-rule="evenodd" clip-rule="evenodd"
            d="M38.725 1H3a2 2 0 00-2 2v22a2 2 0 002 2h35.725a2 2 0 001.44-.612l10.607-11a2 2 0 000-2.776l-10.607-11A2 2 0 0038.725 1zM3 0h35.725a3 3 0 012.16.918l10.607 11a3 3 0 010 4.164l-10.607 11a3 3 0 01-2.16.918H3a3 3 0 01-3-3V3a3 3 0 013-3z"
            fill="#000" />
    </g>
</svg>