<svg width="100" height="56" fill="none" xmlns="http://www.w3.org/2000/svg">
    <mask id="prefix__a" style="mask-type:alpha" maskUnits="userSpaceOnUse" x="0" y="0" width="99" height="56">
        <path
            d="M73.431 0H3a3 3 0 00-3 3v50a3 3 0 003 3h70.431a3 3 0 002.229-.992l22.53-25a3 3 0 000-4.016l-22.53-25A3 3 0 0073.432 0z"
            fill="#D9D9D9" />
    </mask>
    <g mask="url(#prefix__a)">
        <path fill="#E30613" d="M24 0h75v56H24z" />
        <path
            d="M61.182 19.375a7.651 7.651 0 00-1.006-2.199 6.208 6.208 0 00-1.585-1.636 6.797 6.797 0 00-2.114-1.04c-.784-.239-1.653-.358-2.608-.358-1.784 0-3.352.443-4.704 1.33-1.341.886-2.387 2.176-3.137 3.869-.75 1.682-1.125 3.738-1.125 6.17s.37 4.5 1.108 6.205c.739 1.704 1.784 3.006 3.137 3.903 1.352.887 2.949 1.33 4.79 1.33 1.67 0 3.096-.296 4.278-.886 1.193-.603 2.102-1.45 2.727-2.54.637-1.091.955-2.381.955-3.87l1.5.222h-9v-5.557h14.608v4.398c0 3.068-.648 5.704-1.944 7.909-1.295 2.193-3.079 3.886-5.352 5.08-2.273 1.181-4.875 1.772-7.807 1.772-3.272 0-6.147-.721-8.625-2.164-2.477-1.455-4.409-3.518-5.795-6.188-1.375-2.682-2.063-5.864-2.063-9.546 0-2.829.41-5.352 1.228-7.568.83-2.227 1.988-4.113 3.477-5.659a15.025 15.025 0 015.199-3.528c1.977-.807 4.12-1.21 6.426-1.21 1.977 0 3.818.29 5.523.869 1.704.568 3.216 1.375 4.534 2.42a13.105 13.105 0 013.255 3.733c.841 1.432 1.381 3.012 1.62 4.739h-7.5zM1 0h23v56H1z"
            fill="#fff" />
        <path
            d="M8.771 19H5.476l5.021-14.545h3.963L19.474 19H16.18L12.536 7.778h-.114L8.772 19zm-.206-5.717h7.784v2.4H8.565v-2.4zM15.91 41.156c-.1-.345-.24-.65-.42-.916-.18-.27-.4-.497-.66-.682a2.83 2.83 0 00-.881-.433c-.327-.1-.69-.15-1.087-.15-.743 0-1.397.185-1.96.555-.559.37-.994.907-1.307 1.612-.312.7-.469 1.558-.469 2.571 0 1.013.154 1.875.462 2.585.308.71.743 1.253 1.307 1.627.563.369 1.229.554 1.996.554.696 0 1.29-.123 1.782-.37a2.648 2.648 0 001.137-1.058c.265-.454.397-.992.397-1.612l.625.092h-3.75v-2.315h6.087v1.832c0 1.279-.27 2.377-.81 3.296a5.518 5.518 0 01-2.23 2.116c-.947.493-2.031.739-3.253.739-1.363 0-2.561-.3-3.593-.902-1.033-.606-1.837-1.466-2.415-2.578-.573-1.118-.86-2.443-.86-3.977 0-1.18.171-2.23.512-3.154.346-.928.828-1.714 1.449-2.358a6.262 6.262 0 012.166-1.47 7.02 7.02 0 012.678-.504c.823 0 1.59.12 2.3.362.71.237 1.34.573 1.89 1.008a5.461 5.461 0 011.356 1.556c.35.596.576 1.255.675 1.974H15.91zM17.5 26.98L12.756 22 8 26.994l1.31 1.375 2.52-2.645V33h1.852v-7.276l2.508 2.632 1.31-1.375z"
            fill="#000" />
        <path fill-rule="evenodd" clip-rule="evenodd"
            d="M73.431 1H3a2 2 0 00-2 2v50a2 2 0 002 2h70.431a2 2 0 001.486-.661l22.53-25a2 2 0 000-2.678l-22.53-25A2 2 0 0073.431 1zM3 0h70.431a3 3 0 012.229.992l22.53 25a3 3 0 010 4.016l-22.53 25a3 3 0 01-2.228.992H3a3 3 0 01-3-3V3a3 3 0 013-3z"
            fill="#000" />
    </g>
</svg>