<svg width="100" height="56" fill="none" xmlns="http://www.w3.org/2000/svg">
    <mask id="prefix__a" style="mask-type:alpha" maskUnits="userSpaceOnUse" x="0" y="0" width="99" height="56">
        <path
            d="M73.431 0H3a3 3 0 00-3 3v50a3 3 0 003 3h70.431a3 3 0 002.229-.992l22.53-25a3 3 0 000-4.016l-22.53-25A3 3 0 0073.432 0z"
            fill="#D9D9D9" />
    </mask>
    <g mask="url(#prefix__a)">
        <path fill="#009640" d="M24 0h75v56H24z" />
        <path
            d="M44.051 43h-7.909L48.193 8.09h9.512L69.739 43h-7.91l-8.744-26.932h-.273L44.053 43zm-.494-13.722h18.682v5.762H43.557v-5.762zM1 0h23v56H1z"
            fill="#fff" />
        <path
            d="M8.771 19H5.476l5.021-14.545h3.963L19.474 19H16.18L12.536 7.778h-.114L8.772 19zm-.206-5.717h7.784v2.4H8.565v-2.4zM15.91 41.156c-.1-.345-.24-.65-.42-.916-.18-.27-.4-.497-.66-.682a2.83 2.83 0 00-.881-.433c-.327-.1-.69-.15-1.087-.15-.743 0-1.397.185-1.96.555-.559.37-.994.907-1.307 1.612-.312.7-.469 1.558-.469 2.571 0 1.013.154 1.875.462 2.585.308.71.743 1.253 1.307 1.627.563.369 1.229.554 1.996.554.696 0 1.29-.123 1.782-.37a2.648 2.648 0 001.137-1.058c.265-.454.397-.992.397-1.612l.625.092h-3.75v-2.315h6.087v1.832c0 1.279-.27 2.377-.81 3.296a5.518 5.518 0 01-2.23 2.116c-.947.493-2.031.739-3.253.739-1.363 0-2.561-.3-3.593-.902-1.033-.606-1.837-1.466-2.415-2.578-.573-1.118-.86-2.443-.86-3.977 0-1.18.171-2.23.512-3.154.346-.928.828-1.714 1.449-2.358a6.262 6.262 0 012.166-1.47 7.02 7.02 0 012.678-.504c.823 0 1.59.12 2.3.362.71.237 1.34.573 1.89 1.008a5.461 5.461 0 011.356 1.556c.35.596.576 1.255.675 1.974H15.91zM17.5 26.98L12.756 22 8 26.994l1.31 1.375 2.52-2.645V33h1.852v-7.276l2.508 2.632 1.31-1.375z"
            fill="#000" />
        <path fill-rule="evenodd" clip-rule="evenodd"
            d="M73.431 1H3a2 2 0 00-2 2v50a2 2 0 002 2h70.431a2 2 0 001.486-.661l22.53-25a2 2 0 000-2.678l-22.53-25A2 2 0 0073.431 1zM3 0h70.431a3 3 0 012.229.992l22.53 25a3 3 0 010 4.016l-22.53 25a3 3 0 01-2.228.992H3a3 3 0 01-3-3V3a3 3 0 013-3z"
            fill="#000" />
    </g>
</svg>